<svg width="52" height="52" viewBox="0 0 52 52" fill="none" xmlns="http://www.w3.org/2000/svg">
<g filter="url(#filter0_d_0_436)">
<path d="M19.6965 22.6279V30.1179" stroke="white" stroke-width="4" stroke-linecap="round" stroke-linejoin="round"/>
<path d="M23.5181 26.3735H15.8758" stroke="white" stroke-width="4" stroke-linecap="round" stroke-linejoin="round"/>
<path d="M32.7322 22.856H32.5182" stroke="white" stroke-width="4" stroke-linecap="round" stroke-linejoin="round"/>
<path d="M36.3592 30.0051H36.1451" stroke="white" stroke-width="4" stroke-linecap="round" stroke-linejoin="round"/>
<path opacity="0.4" d="M18.1443 2C18.1443 3.48097 19.3693 4.68152 20.8804 4.68152H22.9933C25.3246 4.68983 27.2129 6.54052 27.2235 8.82532V10.1754" stroke="white" stroke-width="4" stroke-linecap="round" stroke-linejoin="round"/>
<path fill-rule="evenodd" clip-rule="evenodd" d="M34.8566 41.9253C28.8462 42.027 22.9461 42.0229 17.1455 41.9253C10.707 41.9253 6 37.3328 6 31.0226V21.7235C6 15.4133 10.707 10.8208 17.1455 10.8208C22.9779 10.7211 28.8823 10.7232 34.8566 10.8208C41.2951 10.8208 46 15.4153 46 21.7235V31.0226C46 37.3328 41.2951 41.9253 34.8566 41.9253Z" stroke="white" stroke-width="4" stroke-linecap="round" stroke-linejoin="round"/>
</g>
<defs>
<filter id="filter0_d_0_436" x="0" y="0" width="52" height="52" filterUnits="userSpaceOnUse" color-interpolation-filters="sRGB">
<feFlood flood-opacity="0" result="BackgroundImageFix"/>
<feColorMatrix in="SourceAlpha" type="matrix" values="0 0 0 0 0 0 0 0 0 0 0 0 0 0 0 0 0 0 127 0" result="hardAlpha"/>
<feOffset dy="4"/>
<feGaussianBlur stdDeviation="2"/>
<feComposite in2="hardAlpha" operator="out"/>
<feColorMatrix type="matrix" values="0 0 0 0 0 0 0 0 0 0 0 0 0 0 0 0 0 0 0.25 0"/>
<feBlend mode="normal" in2="BackgroundImageFix" result="effect1_dropShadow_0_436"/>
<feBlend mode="normal" in="SourceGraphic" in2="effect1_dropShadow_0_436" result="shape"/>
</filter>
</defs>
</svg>
